#!OML:ASF I:\Actors\actors\Patient Classification 2\Patient 1\Session 1\actor1.ASF
:FULLY-SPECIFIED
:DEGREES
285
root -0.467066 18.8677 5.09609 8.77112 -9.6423 -1.78747
lowerback 35.3276 -4.06514 -5.58547
upperback 8.7069 -7.83445 -6.7136
thorax -8.36921 -3.57443 -1.20539
lowerneck -20.9656 7.86505 7.98776
upperneck 25.9065 8.82555 -1.80449
head 12.5393 4.40444 -0.512599
rclavicle 7.95139e-015 -5.08889e-014
rhumerus -92.684 29.8853 -90.2651
rradius 133.143
rwrist -79.6868
rhand -30.6476 -65.8226
rfingers 7.12502
rthumb -3.94283 455.766
lclavicle 7.95139e-015 -5.08889e-014
lhumerus -34.2988 -26.8701 95.4542
lradius 115.218
lwrist 107.949
lhand -41.182 -31.5909
lfingers 7.12502
lthumb -14.107 -2.08973
rfemur 0 0 0
rtibia 0
rfoot 0 0
rtoes 0
lfemur -13.8874 2.14064 -12.8676
ltibia 23.6551
lfoot -20.6701 14.7074
ltoes -54.5946
286
root -0.455105 18.8796 5.03132 9.46198 -9.23579 -1.83582
lowerback 36.3326 -3.77434 -6.04387
upperback 8.84795 -7.68728 -6.70834
thorax -8.39267 -3.48631 -1.04281
lowerneck -21.0917 7.6805 7.72732
upperneck 24.8999 8.54863 -1.55216
head 12.1224 4.29637 -0.436757
rclavicle -4.92986e-014 9.54166e-015
rhumerus -90.3183 29.7666 -90.8156
rradius 133.197
rwrist -79.8234
rhand -30.4847 -64.9491
rfingers 7.12502
rthumb -3.78549 454.895
lclavicle -4.92986e-014 9.54166e-015
lhumerus -31.517 -25.4319 93.1548
lradius 114.946
lwrist 107.426
lhand -41.3381 -28.9434
lfingers 7.12502
lthumb -14.2574 0.547211
rfemur 0 0 0
rtibia 0
rfoot 0 0
rtoes 0
lfemur -15.2585 2.15061 -12.8317
ltibia 24.1116
lfoot -20.3096 14.5665
ltoes -54.5468
287
root -0.443666 18.8918 4.96092 10.308 -8.82412 -1.82297
lowerback 37.2659 -3.48535 -6.44234
upperback 9.00049 -7.53037 -6.74977
thorax -8.5054 -3.39131 -0.912307
lowerneck -21.2838 7.37799 7.36296
upperneck 23.8618 8.13297 -1.26508
head 11.7021 4.12014 -0.354999
rclavicle -5.08889e-014 -6.04305e-014
rhumerus -87.7228 29.6582 -91.6812
rradius 133.048
rwrist -80.6768
rhand -29.9657 -62.8404
rfingers 7.12502
rthumb -3.28436 452.795
lclavicle -5.08889e-014 -6.04305e-014
lhumerus -28.351 -23.6969 90.7627
lradius 113.995
lwrist 106.647
lhand -40.4532 -26.87
lfingers 7.12502
lthumb -13.4046 2.67875
rfemur 0 0 0
rtibia 0
rfoot 0 0
rtoes 0
lfemur -16.8309 2.19602 -12.8603
ltibia 24.5389
lfoot -19.8523 14.4397
ltoes -54.5946
288
root -0.432834 18.9016 4.89193 11.2796 -8.46359 -1.74536
lowerback 38.013 -3.1422 -6.81383
upperback 9.17462 -7.29232 -6.84008
thorax -8.53415 -3.26408 -0.892364
lowerneck -21.5184 6.95626 7.01612
upperneck 22.749 7.54655 -0.967174
head 11.2659 3.8687 -0.300574
rclavicle 4.45278e-014 2.70347e-014
rhumerus -83.6129 29.38 -92.108
rradius 132.72
rwrist -79.4404
rhand -25.6127 -69.3943
rfingers 7.12502
rthumb 0.919779 459.372
lclavicle 4.45278e-014 2.70347e-014
lhumerus -24.5682 -21.7211 88.2316
lradius 111.876
lwrist 105.318
lhand -38.5555 -24.7007
lfingers 7.12502
lthumb -11.575 4.9597
rfemur 0 0 0
rtibia 0
rfoot 0 0
rtoes 0
lfemur -18.5078 2.25997 -12.9634
ltibia 24.9194
lfoot -19.3853 14.3318
ltoes -54.7301
289
root -0.421619 18.9081 4.83228 12.3245 -8.17639 -1.61823
lowerback 38.5215 -2.77216 -7.17679
upperback 9.36207 -7.00618 -6.96982
thorax -8.46999 -3.12122 -0.950945
lowerneck -21.6278 6.47314 6.65643
upperneck 21.5892 6.86732 -0.548244
head 10.7928 3.58698 -0.218985
rclavicle 1.59028e-014 1.74931e-014
rhumerus -78.3289 29.0599 -92.3212
rradius 131.584
rwrist -78.516
rhand -24.1132 -68.772
rfingers 7.12502
rthumb 2.36803 458.739
lclavicle 1.59028e-014 1.74931e-014
lhumerus -20.0385 -19.4175 85.8266
lradius 108.273
lwrist 103.303
lhand -36.6779 -21.9784
lfingers 7.12502
lthumb -9.76384 7.77521
rfemur 0 0 0
rtibia 0
rfoot 0 0
rtoes 0
lfemur -20.1727 2.26313 -13.1224
ltibia 25.2439
lfoot -19.0321 14.2494
ltoes -54.7705
290
root -0.407853 18.913 4.78332 13.4239 -7.8778 -1.55523
lowerback 38.8169 -2.43231 -7.4443
upperback 9.57665 -6.69862 -7.07954
thorax -8.31144 -2.97641 -1.05502
lowerneck -21.5711 5.98534 6.38152
upperneck 20.3899 6.17366 -0.10742
head 10.2922 3.30344 -0.14858
rclavicle 6.36111e-015 4.29375e-014
rhumerus -71.8533 28.902 -92.727
rradius 128.715
rwrist -76.6489
rhand -25.4419 -65.515
rfingers 7.12502
rthumb 1.08475 455.492
lclavicle 6.36111e-015 4.29375e-014
lhumerus -14.6076 -16.1278 83.7447
lradius 101.749
lwrist 99.7336
lhand -31.5019 -17.7492
lfingers 7.12502
lthumb -4.76777 12.1771
rfemur 0 0 0
rtibia 0
rfoot 0 0
rtoes 0
lfemur -21.8035 2.13025 -13.1958
ltibia 25.4977
lfoot -18.7674 14.2567
ltoes -54.7719
